<svg xmlns="http://www.w3.org/2000/svg">
    <symbol id="logo">
        <path fill-rule="evenodd" clip-rule="evenodd"
            d="M0 14.5172V55H8.52969V30.016L19.0564 46.3233H24.0092L31.8094 34.2779L33.4489 31.7491L29.0414 23.9896L27.4019 26.5276L21.5608 35.5672L7.90495 14.5172H0ZM112.953 22.0722H106.598V47.3455H112.953C120.844 47.3455 125.1 43.0559 125.1 34.7089C125.1 26.3618 120.844 22.0741 112.953 22.0741V22.0722ZM112.953 14.4214C127.088 14.4214 133.783 22.9416 133.783 34.7089C133.783 46.4762 127.088 54.9964 112.953 54.9964H98.0842V14.4214H112.953ZM153.119 14.4214C157.648 14.4214 162.232 15.5357 165.506 17.4309V25.2328C162.286 22.8937 157.976 21.7223 153.719 21.7776C149.571 21.8328 147.496 23.0042 147.496 25.4004C147.496 32.1451 168.398 29.6365 168.398 43.5145C168.398 52.265 161.522 54.9964 153.5 54.9964C148.206 54.9964 143.295 53.7145 139.366 51.4859V43.5145C143.381 46.2187 148.089 47.6539 152.901 47.6402C157.321 47.6402 160.049 46.6917 160.049 43.905C160.049 36.6041 139.147 39.3355 139.147 25.5127C139.147 17.9871 145.588 14.4214 153.119 14.4214ZM202.813 14.4214V22.0722H183.347V30.7103H201.11V38.3022H183.347V47.3455H203.154V54.9964H174.833V14.4214H202.813ZM210.036 54.9964V14.4214H218.038L236.54 40.9121C236.424 39.0591 236.368 37.2028 236.37 35.3461V14.4214H244.884V54.9964H236.881L218.379 28.5057C218.491 30.1872 218.549 32.2151 218.549 34.0716V54.9964H210.036ZM72.9249 21.8623C72.9702 21.0996 72.7951 20.34 72.4211 19.6779L69.4491 14.4251H66.3814L70.1172 21.0335C70.2616 21.2913 70.3086 21.586 70.249 21.8641H72.9249V21.8623Z"/>
        <path fill-rule="evenodd" clip-rule="evenodd"
            d="M92.4181 36.5506L83.029 53.1544C82.7142 53.7146 82.2602 54.1802 81.7127 54.5042C81.1652 54.8282 80.5437 54.9992 79.9107 54.9999H61.1324C60.4991 54.9995 59.8771 54.8287 59.3293 54.5047C58.7815 54.1806 58.3272 53.7149 58.0123 53.1544L52.4312 43.2805L50.8946 40.5694L48.6231 36.5506C48.3079 35.99 48.1421 35.355 48.1421 34.7087C48.1421 34.0625 48.3079 33.4275 48.6231 32.8669L58.0123 16.2631C58.3274 15.7033 58.7819 15.2383 59.3298 14.9152C59.8777 14.5921 60.4995 14.4224 61.1324 14.4231H66.3831L70.1171 21.0315C70.2615 21.2894 70.3085 21.584 70.2489 21.8622H63.2576L55.9936 34.7124L59.2907 40.5417L60.6412 42.9361L63.2576 47.5609H77.7855L85.0476 34.7124L77.7855 21.8622H72.9248C72.9702 21.0994 72.7951 20.3399 72.421 19.6778L69.449 14.4249H79.9107C80.5432 14.4245 81.1647 14.5944 81.7122 14.9175C82.2598 15.2406 82.714 15.7054 83.029 16.2649L92.4181 32.8669C93.0609 34.0089 93.0609 35.4086 92.4181 36.5524"/>
        <mask id="mask0_9_798" style="mask-type:alpha" maskUnits="userSpaceOnUse" x="25" y="0"
            width="48" height="44">
            <path d="M25.1885 0H72.9287V43.2806H25.1885V0Z" fill="#F17900" />
        </mask>
        <g mask="url(#mask0_9_798)">
            <path fill-rule="evenodd" clip-rule="evenodd"
                d="M42.9409 40.5691V43.2802H52.4294L50.8946 40.5691H42.9391H42.9409ZM72.4193 19.6775L69.4472 14.4247L62.4017 1.95933C62.0639 1.3631 61.5782 0.868004 60.9935 0.523716C60.4087 0.179428 59.7455 -0.00194255 59.0704 -0.00219727H39.0462C37.6703 -0.00219727 36.4064 0.74926 35.7167 1.95933L25.6992 19.6775C25.3639 20.2747 25.1875 20.9509 25.1875 21.639C25.1875 22.3272 25.3639 23.0034 25.6992 23.6005L27.3134 26.4609L31.7118 34.2333L34.4329 39.0459V33.6236L33.3459 31.6953L28.9492 23.9173L28.0031 22.2487C27.8989 22.0634 27.844 21.8535 27.844 21.6399C27.844 21.4263 27.8989 21.2165 28.0031 21.0312L38.0152 3.31858C38.1199 3.13367 38.2704 2.98014 38.4517 2.87345C38.633 2.76675 38.8387 2.71065 39.048 2.71078H59.0722C59.4947 2.71078 59.8919 2.94101 60.1032 3.31858L66.3813 14.4247L70.1153 21.0312C70.2598 21.2891 70.3085 21.5838 70.2489 21.8619C70.2274 21.9979 70.1821 22.1289 70.1153 22.2487L60.1032 39.9595C60.0191 40.1123 59.9024 40.2439 59.7618 40.3447C59.6212 40.4454 59.4602 40.5126 59.2907 40.5415L60.6413 42.9358C61.3803 42.5992 61.9963 42.0333 62.4017 41.3187L72.4193 23.6005C72.7186 23.0692 72.8917 22.4738 72.9248 21.8619C72.9697 21.099 72.7939 20.3394 72.4193 19.6775Z"
                fill="#F17900" />
        </g>
        <path fill-rule="evenodd" clip-rule="evenodd"
            d="M42.9428 14.4249V54.9999H34.433V30.0121L33.3478 31.6956L28.9512 23.9194L35.0559 14.4231L42.9428 14.4249Z"/>
    </symbol>
    <symbol id="settings">
        <g clip-path="url(#clip0_37_121)">
            <path
                d="M26 48H22C20.346 48 19 46.654 19 45V41.276C17.7199 40.906 16.4852 40.3938 15.319 39.749L12.685 42.384C11.551 43.518 9.576 43.516 8.442 42.384L5.613 39.556C5.046 38.99 4.734 38.236 4.734 37.435C4.734 36.634 5.046 35.88 5.613 35.314L8.248 32.678C7.60317 31.5128 7.09162 30.2787 6.723 28.999H3C1.346 28.999 0 27.653 0 25.999V21.999C0 21.197 0.312 20.444 0.878 19.878C1.1561 19.5986 1.48682 19.377 1.85104 19.2262C2.21526 19.0753 2.60577 18.9981 3 18.999H6.724C7.094 17.721 7.604 16.488 8.25 15.32L5.616 12.685C5.05408 12.1222 4.73847 11.3593 4.73847 10.564C4.73847 9.76867 5.05408 9.00584 5.616 8.443L8.444 5.614C9.577 4.482 11.553 4.48 12.687 5.614L15.322 8.249C16.4873 7.60504 17.7209 7.09352 19 6.724V3C19 1.346 20.346 0 22 0H26C27.654 0 29 1.346 29 3V6.724C30.28 7.094 31.512 7.605 32.678 8.249L35.313 5.614C36.447 4.482 38.422 4.48 39.556 5.614L42.385 8.442C42.952 9.008 43.264 9.762 43.264 10.563C43.264 11.364 42.952 12.118 42.385 12.684L39.751 15.319C40.396 16.4846 40.9079 17.719 41.277 18.999H45C46.654 18.999 48 20.345 48 21.999V25.999C48 26.801 47.688 27.554 47.122 28.12C46.556 28.686 45.802 28.999 45 28.999H41.276C40.9062 30.2788 40.3944 31.5131 39.75 32.679L42.384 35.314C42.9459 35.8768 43.2615 36.6397 43.2615 37.435C43.2615 38.2303 42.9459 38.9932 42.384 39.556L39.556 42.385C38.422 43.518 36.447 43.518 35.313 42.385L32.68 39.75C31.5144 40.3943 30.2804 40.9061 29.001 41.276V45C28.9997 45.7954 28.683 46.5579 28.1205 47.1202C27.558 47.6826 26.7954 47.9989 26 48ZM15.157 37.498C15.336 37.498 15.517 37.546 15.678 37.644C17.0892 38.5079 18.6267 39.146 20.235 39.535C20.4531 39.5877 20.6471 39.7122 20.7858 39.8885C20.9246 40.0648 21 40.2827 21 40.507V45C21 45.552 21.449 46 22 46H26C26.551 46 27 45.552 27 45V40.507C27 40.2827 27.0754 40.0648 27.2142 39.8885C27.3529 39.7122 27.5469 39.5877 27.765 39.535C29.3729 39.1462 30.9101 38.5085 32.321 37.645C32.717 37.404 33.223 37.465 33.55 37.791L36.728 40.97C37.103 41.344 37.767 41.346 38.143 40.97L40.971 38.141C41.1585 37.9535 41.2638 37.6992 41.2638 37.434C41.2638 37.1688 41.1585 36.9145 40.971 36.727L37.792 33.548C37.6332 33.3893 37.5325 33.1817 37.506 32.9588C37.4795 32.7359 37.5288 32.5105 37.646 32.319C38.5094 30.9081 39.1468 29.3709 39.535 27.763C39.5875 27.5448 39.712 27.3505 39.8883 27.2116C40.0646 27.0726 40.2825 26.9971 40.507 26.997H45C45.1313 26.9975 45.2614 26.9721 45.3828 26.9221C45.5043 26.8722 45.6146 26.7987 45.7076 26.706C45.8005 26.6132 45.8742 26.503 45.9244 26.3817C45.9746 26.2604 46.0003 26.1303 46 25.999V21.999C46 21.447 45.551 20.999 45 20.999H40.507C40.2825 20.9991 40.0644 20.9236 39.8881 20.7846C39.7118 20.6457 39.5874 20.4513 39.535 20.233C39.1469 18.6251 38.5095 17.0878 37.646 15.677C37.5288 15.4855 37.4795 15.2601 37.506 15.0372C37.5325 14.8143 37.6332 14.6067 37.792 14.448L40.971 11.269C41.157 11.082 41.264 10.825 41.264 10.562C41.264 10.299 41.157 10.041 40.971 9.855L38.142 7.027C37.9511 6.84559 37.6978 6.74443 37.4345 6.74443C37.1712 6.74443 36.9179 6.84559 36.727 7.027L33.548 10.206C33.3897 10.3656 33.1821 10.4668 32.959 10.4933C32.7358 10.5198 32.5102 10.47 32.319 10.352C30.9087 9.48886 29.3722 8.85149 27.765 8.463C27.547 8.41084 27.353 8.28675 27.2142 8.11076C27.0754 7.93477 26.9999 7.71714 27 7.493V3C27 2.448 26.551 2 26 2H22C21.449 2 21 2.448 21 3V7.493C21 7.71735 20.9246 7.93517 20.7858 8.11147C20.6471 8.28776 20.4531 8.41228 20.235 8.465C18.6272 8.85344 17.09 9.4908 15.679 10.354C15.4877 10.4712 15.2625 10.5206 15.0397 10.4941C14.8169 10.4676 14.6095 10.3668 14.451 10.208L11.272 7.029C11.0811 6.84759 10.8278 6.74643 10.5645 6.74643C10.3012 6.74643 10.0479 6.84759 9.857 7.029L7.03 9.857C6.84253 10.0445 6.73721 10.2988 6.73721 10.564C6.73721 10.8292 6.84253 11.0835 7.03 11.271L10.209 14.45C10.3678 14.6087 10.4685 14.8163 10.495 15.0392C10.5215 15.2621 10.4722 15.4875 10.355 15.679C9.49164 17.0895 8.85427 18.6264 8.466 20.234C8.41347 20.4522 8.28904 20.6465 8.11273 20.7854C7.93641 20.9244 7.71848 20.9999 7.494 21H3C2.86861 20.9995 2.73842 21.0249 2.61692 21.0749C2.49542 21.125 2.38502 21.1985 2.29207 21.2914C2.19912 21.3842 2.12546 21.4946 2.07533 21.616C2.02521 21.7374 1.9996 21.8676 2 21.999V25.999C2 26.551 2.449 26.999 3 26.999H7.493C7.955 26.999 8.357 27.315 8.465 27.765C8.85343 29.3725 9.49079 30.9094 10.354 32.32C10.4712 32.5115 10.5205 32.7369 10.494 32.9598C10.4675 33.1827 10.3668 33.3903 10.208 33.549L7.029 36.729C6.843 36.916 6.736 37.173 6.736 37.436C6.736 37.699 6.843 37.957 7.029 38.143L9.858 40.971C10.0489 41.1524 10.3022 41.2536 10.5655 41.2536C10.8288 41.2536 11.0821 41.1524 11.273 40.971L14.451 37.792C14.5433 37.6986 14.6533 37.6245 14.7745 37.5741C14.8957 37.5236 15.0257 37.4977 15.157 37.498Z"/>
            <path
                d="M24 34C18.486 34 14 29.514 14 24C14 18.486 18.486 14 24 14C29.514 14 34 18.486 34 24C34 29.514 29.515 34 24 34ZM24 16C19.589 16 16 19.589 16 24C16 28.411 19.589 32 24 32C28.411 32 32 28.411 32 24C32 19.589 28.412 16 24 16Z"/>
        </g>
        <defs>
            <clipPath id="clip0_37_121">
                <rect width="48" height="48" />
            </clipPath>
        </defs>
    </symbol>
    <symbol id="close">
        <circle cx="25" cy="25" r="25" fill-opacity="0.2" stroke="none"/>
        <line x1="34.8164" y1="14.7817" x2="14.7818" y2="34.8163" />
        <line x1="14.7818" y1="15.2531" x2="34.8165" y2="35.2878" />
    </symbol>
    <symbol id="name">
        <path d="M42.5715 33.8933C45.1859 31.8364 47.0941 29.0158 48.0308 25.8238C48.9674 22.6319 48.8859 19.2274 47.7976 16.0839C46.7092 12.9404 44.6682 10.2144 41.9583 8.28493C39.2485 6.3555 36.0047 5.31866 32.6782 5.31866C29.3516 5.31866 26.1078 6.3555 23.398 8.28493C20.6881 10.2144 18.6471 12.9404 17.5587 16.0839C16.4704 19.2274 16.3889 22.6319 17.3255 25.8238C18.2622 29.0158 20.1704 31.8364 22.7848 33.8933C18.305 35.6881 14.3963 38.6649 11.4752 42.5064C8.55415 46.3479 6.73032 50.9101 6.19815 55.7066C6.15963 56.0568 6.19046 56.4112 6.28889 56.7495C6.38731 57.0877 6.5514 57.4033 6.77178 57.6782C7.21687 58.2333 7.86424 58.5889 8.57149 58.6667C9.27873 58.7444 9.98791 58.5381 10.543 58.093C11.0981 57.6479 11.4537 57.0006 11.5315 56.2933C12.117 51.0805 14.6026 46.2662 18.5134 42.7701C22.4242 39.274 27.4859 37.3414 32.7315 37.3414C37.9771 37.3414 43.0388 39.274 46.9496 42.7701C50.8603 46.2662 53.3459 51.0805 53.9315 56.2933C54.004 56.9486 54.3166 57.5537 54.8091 57.992C55.3016 58.4303 55.9389 58.6707 56.5981 58.6667H56.8915C57.5905 58.5862 58.2294 58.2328 58.669 57.6833C59.1085 57.1339 59.3131 56.433 59.2381 55.7333C58.7035 50.9232 56.8698 46.3493 53.9337 42.5019C50.9977 38.6544 47.0699 35.6786 42.5715 33.8933ZM32.6782 32C30.5685 32 28.5062 31.3744 26.7521 30.2023C24.9979 29.0303 23.6308 27.3644 22.8234 25.4153C22.0161 23.4662 21.8049 21.3215 22.2164 19.2524C22.628 17.1832 23.6439 15.2826 25.1357 13.7908C26.6274 12.2991 28.5281 11.2832 30.5972 10.8716C32.6663 10.46 34.811 10.6713 36.7601 11.4786C38.7092 12.2859 40.3751 13.6531 41.5472 15.4072C42.7192 17.1614 43.3448 19.2237 43.3448 21.3333C43.3448 24.1623 42.221 26.8754 40.2206 28.8758C38.2202 30.8762 35.5071 32 32.6782 32Z" fill="#DBDBDB"/>
    </symbol>
    <symbol id="surname">
        <path d="M48.1387 40.334C48.368 40.6913 48.6987 40.9687 49.08 41.15C50.554 41.8566 51.798 42.9657 52.6686 44.3492C53.5391 45.7326 54.0007 47.3341 54 48.9687V54.302C54 54.8324 54.2107 55.3411 54.5858 55.7162C54.9609 56.0913 55.4696 56.302 56 56.302C56.5304 56.302 57.0391 56.0913 57.4142 55.7162C57.7893 55.3411 58 54.8324 58 54.302V48.9687C58 45.6093 56.6655 42.3874 54.29 40.012C51.9146 37.6365 48.6927 36.302 45.3333 36.302C45.0427 36.302 44.912 36.6753 45.1307 36.8647C46.2941 37.8713 47.3071 39.0396 48.1387 40.334Z" fill="#DBDBDB"/>
        <path fill-rule="evenodd" clip-rule="evenodd" d="M18.6667 40.302C16.3681 40.302 14.1637 41.2151 12.5384 42.8404C10.9131 44.4657 10 46.6701 10 48.9687V54.302C10 54.8324 9.78929 55.3411 9.41421 55.7162C9.03914 56.0913 8.53043 56.302 8 56.302C7.46957 56.302 6.96086 56.0913 6.58579 55.7162C6.21071 55.3411 6 54.8324 6 54.302V48.9687C6 45.6093 7.33452 42.3874 9.70998 40.012C12.0854 37.6365 15.3073 36.302 18.6667 36.302H34.6667C38.0261 36.302 41.2479 37.6365 43.6234 40.012C45.9988 42.3874 47.3333 45.6093 47.3333 48.9687V54.302C47.3333 54.8324 47.1226 55.3411 46.7476 55.7162C46.3725 56.0913 45.8638 56.302 45.3333 56.302C44.8029 56.302 44.2942 56.0913 43.9191 55.7162C43.544 55.3411 43.3333 54.8324 43.3333 54.302V48.9687C43.3333 46.6701 42.4202 44.4657 40.7949 42.8404C39.1696 41.2151 36.9652 40.302 34.6667 40.302H18.6667Z" fill="#DBDBDB"/>
        <path d="M39.6533 26.454C39.8933 26.0033 40.2667 25.6433 40.7093 25.3873C41.7134 24.7999 42.5463 23.9599 43.125 22.9507C43.7038 21.9416 44.0083 20.7986 44.0083 19.6353C44.0083 18.472 43.7038 17.329 43.125 16.3198C42.5463 15.3107 41.7134 14.4707 40.7093 13.8833C40.2651 13.6327 39.8995 13.2633 39.6533 12.8166C38.9932 11.5622 38.1552 10.4099 37.1653 9.39529C37.0133 9.23529 37.112 8.96863 37.3333 8.96863C40.1623 8.96863 42.8754 10.0924 44.8758 12.0928C46.8762 14.0932 48 16.8063 48 19.6353C48 22.4643 46.8762 25.1774 44.8758 27.1778C42.8754 29.1782 40.1623 30.302 37.3333 30.302C37.112 30.302 37.0133 30.0353 37.1653 29.8753C38.152 28.8673 38.992 27.7153 39.6533 26.454Z" fill="#DBDBDB"/>
        <path fill-rule="evenodd" clip-rule="evenodd" d="M26.6667 26.302C28.4348 26.302 30.1305 25.5996 31.3807 24.3493C32.631 23.0991 33.3333 21.4034 33.3333 19.6353C33.3333 17.8672 32.631 16.1715 31.3807 14.9213C30.1305 13.671 28.4348 12.9686 26.6667 12.9686C24.8986 12.9686 23.2029 13.671 21.9526 14.9213C20.7024 16.1715 20 17.8672 20 19.6353C20 21.4034 20.7024 23.0991 21.9526 24.3493C23.2029 25.5996 24.8986 26.302 26.6667 26.302ZM26.6667 30.302C29.4956 30.302 32.2088 29.1782 34.2091 27.1778C36.2095 25.1774 37.3333 22.4643 37.3333 19.6353C37.3333 16.8063 36.2095 14.0932 34.2091 12.0928C32.2088 10.0924 29.4956 8.96863 26.6667 8.96863C23.8377 8.96863 21.1246 10.0924 19.1242 12.0928C17.1238 14.0932 16 16.8063 16 19.6353C16 22.4643 17.1238 25.1774 19.1242 27.1778C21.1246 29.1782 23.8377 30.302 26.6667 30.302Z" fill="#DBDBDB"/>
    </symbol>
    <symbol id="email">
        <path id="Vector" d="M54.0982 53.7792H11.2582C9.0047 53.7765 6.84423 52.8801 5.25074 51.2866C3.65725 49.6932 2.76087 47.5327 2.75822 45.2792V19.6392C2.76087 17.3856 3.65725 15.2252 5.25074 13.6317C6.84423 12.0382 9.0047 11.1418 11.2582 11.1392H54.0982C56.3518 11.1418 58.5122 12.0382 60.1057 13.6317C61.6992 15.2252 62.5956 17.3856 62.5982 19.6392V45.2792C62.5956 47.5327 61.6992 49.6932 60.1057 51.2866C58.5122 52.8801 56.3518 53.7765 54.0982 53.7792ZM11.2582 14.1392C9.79953 14.1392 8.40059 14.7186 7.36914 15.7501C6.33769 16.7815 5.75822 18.1805 5.75822 19.6392V45.2792C5.75822 46.7378 6.33769 48.1368 7.36914 49.1682C8.40059 50.1997 9.79953 50.7792 11.2582 50.7792H54.0982C55.5569 50.7792 56.9559 50.1997 57.9873 49.1682C59.0188 48.1368 59.5982 46.7378 59.5982 45.2792V19.6392C59.5982 18.1805 59.0188 16.7815 57.9873 15.7501C56.9559 14.7186 55.5569 14.1392 54.0982 14.1392H11.2582Z" fill="#DBDBDB"/>
        <path id="Vector_2" d="M32.6782 38.5391C30.8278 38.542 29.0268 37.9417 27.5482 36.8291L4.19822 19.1691C4.03325 19.0533 3.89329 18.9054 3.78673 18.7344C3.68016 18.5633 3.60917 18.3725 3.57799 18.1734C3.5468 17.9742 3.55607 17.7709 3.60524 17.5754C3.6544 17.3799 3.74246 17.1964 3.86414 17.0357C3.98583 16.875 4.13864 16.7405 4.31347 16.6402C4.4883 16.5399 4.68154 16.4759 4.88167 16.4519C5.0818 16.428 5.2847 16.4446 5.47826 16.5008C5.67181 16.557 5.85206 16.6517 6.00822 16.7791L29.3582 34.4591C30.3171 35.1749 31.4816 35.5616 32.6782 35.5616C33.8748 35.5616 35.0393 35.1749 35.9982 34.4591L59.3482 16.7791C59.5044 16.6517 59.6846 16.557 59.8782 16.5008C60.0718 16.4446 60.2747 16.428 60.4748 16.4519C60.6749 16.4759 60.8681 16.5399 61.043 16.6402C61.2178 16.7405 61.3706 16.875 61.4923 17.0357C61.614 17.1964 61.702 17.3799 61.7512 17.5754C61.8004 17.7709 61.8096 17.9742 61.7785 18.1734C61.7473 18.3725 61.6763 18.5633 61.5697 18.7344C61.4632 18.9054 61.3232 19.0533 61.1582 19.1691L37.8082 36.8291C36.3296 37.9417 34.5287 38.542 32.6782 38.5391Z" fill="#DBDBDB"/>
        <path id="Vector_3" d="M4.84822 49.5991C4.544 49.5995 4.24683 49.5075 3.99614 49.3351C3.74546 49.1627 3.55311 48.9182 3.44463 48.634C3.33614 48.3497 3.31665 48.0392 3.38873 47.7437C3.46082 47.4481 3.62107 47.1815 3.84822 46.9791L22.2482 30.5691C22.5453 30.3039 22.9355 30.1675 23.3331 30.19C23.7307 30.2125 24.103 30.392 24.3682 30.6891C24.6334 30.9861 24.7698 31.3764 24.7473 31.7739C24.7248 32.1715 24.5453 32.5439 24.2482 32.8091L5.84822 49.2191C5.57497 49.4677 5.21763 49.6035 4.84822 49.5991ZM60.5082 49.5991C60.1388 49.6035 59.7815 49.4677 59.5082 49.2191L41.1082 32.8091C40.8112 32.5439 40.6317 32.1715 40.6092 31.7739C40.5867 31.3764 40.723 30.9861 40.9882 30.6891C41.2534 30.392 41.6258 30.2125 42.0234 30.19C42.4209 30.1675 42.8112 30.3039 43.1082 30.5691L61.4982 46.9791C61.7254 47.1815 61.8856 47.4481 61.9577 47.7437C62.0298 48.0392 62.0103 48.3497 61.9018 48.634C61.7933 48.9182 61.601 49.1627 61.3503 49.3351C61.0996 49.5075 60.8024 49.5995 60.4982 49.5991H60.5082Z" fill="#DBDBDB"/>
    </symbol>
    <symbol id="password">
        <path id="Vector" d="M36.9074 56.7206C37.0312 56.8444 37.1781 56.9427 37.3399 57.0097C37.5016 57.0767 37.675 57.1112 37.8501 57.1112C38.0252 57.1112 38.1985 57.0767 38.3603 57.0097C38.522 56.9427 38.669 56.8444 38.7928 56.7206L39.3449 56.1686V56.9498C39.3449 57.3034 39.4854 57.6426 39.7354 57.8926C39.9855 58.1426 40.3246 58.2831 40.6782 58.2831C41.0318 58.2831 41.371 58.1426 41.621 57.8926C41.8711 57.6426 42.0116 57.3034 42.0116 56.9498V56.1686L42.5637 56.7206C42.8152 56.9635 43.152 57.0979 43.5016 57.0948C43.8512 57.0918 44.1856 56.9516 44.4328 56.7043C44.68 56.4571 44.8202 56.1227 44.8233 55.7731C44.8263 55.4235 44.6919 55.0867 44.449 54.8353L42.5637 52.9498L44.449 51.0643C44.6919 50.8129 44.8263 50.4761 44.8233 50.1265C44.8202 49.7769 44.68 49.4424 44.4328 49.1952C44.1856 48.948 43.8512 48.8078 43.5016 48.8048C43.152 48.8017 42.8152 48.9361 42.5637 49.179L42.0116 49.731V48.9498C42.0116 48.5962 41.8711 48.257 41.621 48.007C41.371 47.7569 41.0318 47.6165 40.6782 47.6165C40.3246 47.6165 39.9855 47.7569 39.7354 48.007C39.4854 48.257 39.3449 48.5962 39.3449 48.9498V49.731L38.7928 49.179C38.5413 48.9361 38.2045 48.8017 37.8549 48.8048C37.5053 48.8078 37.1709 48.948 36.9237 49.1952C36.6765 49.4424 36.5362 49.7769 36.5332 50.1265C36.5302 50.4761 36.6645 50.8129 36.9074 51.0643L38.7928 52.9498L36.9074 54.8353C36.6575 55.0853 36.517 55.4244 36.517 55.7779C36.517 56.1315 36.6575 56.4706 36.9074 56.7206ZM48.9074 56.7206C49.0312 56.8444 49.1781 56.9427 49.3399 57.0097C49.5016 57.0767 49.675 57.1112 49.8501 57.1112C50.0252 57.1112 50.1985 57.0767 50.3603 57.0097C50.522 56.9427 50.669 56.8444 50.7928 56.7206L51.3449 56.1686V56.9498C51.3449 57.3034 51.4854 57.6426 51.7354 57.8926C51.9855 58.1426 52.3246 58.2831 52.6782 58.2831C53.0318 58.2831 53.371 58.1426 53.621 57.8926C53.8711 57.6426 54.0116 57.3034 54.0116 56.9498V56.1686L54.5637 56.7206C54.8152 56.9635 55.152 57.0979 55.5016 57.0948C55.8512 57.0918 56.1856 56.9516 56.4328 56.7043C56.68 56.4571 56.8202 56.1227 56.8233 55.7731C56.8263 55.4235 56.6919 55.0867 56.449 54.8353L54.5637 52.9498L56.449 51.0643C56.6919 50.8129 56.8263 50.4761 56.8233 50.1265C56.8202 49.7769 56.68 49.4424 56.4328 49.1952C56.1856 48.948 55.8512 48.8078 55.5016 48.8048C55.152 48.8017 54.8152 48.9361 54.5637 49.179L54.0116 49.731V48.9498C54.0116 48.5962 53.8711 48.257 53.621 48.007C53.371 47.7569 53.0318 47.6165 52.6782 47.6165C52.3246 47.6165 51.9855 47.7569 51.7354 48.007C51.4854 48.257 51.3449 48.5962 51.3449 48.9498V49.731L50.7928 49.179C50.5413 48.9361 50.2045 48.8017 49.8549 48.8048C49.5053 48.8078 49.1709 48.948 48.9237 49.1952C48.6765 49.4424 48.5362 49.7769 48.5332 50.1265C48.5302 50.4761 48.6645 50.8129 48.9074 51.0643L50.7928 52.9498L48.9074 54.8353C48.6575 55.0853 48.517 55.4244 48.517 55.7779C48.517 56.1315 48.6575 56.4706 48.9074 56.7206ZM24.9074 56.7206C25.0312 56.8444 25.1781 56.9427 25.3399 57.0097C25.5016 57.0767 25.675 57.1112 25.8501 57.1112C26.0252 57.1112 26.1985 57.0767 26.3603 57.0097C26.522 56.9427 26.669 56.8444 26.7928 56.7206L27.3449 56.1686V56.9498C27.3449 57.3034 27.4854 57.6426 27.7354 57.8926C27.9855 58.1426 28.3246 58.2831 28.6782 58.2831C29.0318 58.2831 29.371 58.1426 29.621 57.8926C29.8711 57.6426 30.0116 57.3034 30.0116 56.9498V56.1686L30.5637 56.7206C30.8152 56.9635 31.152 57.0979 31.5016 57.0948C31.8512 57.0918 32.1856 56.9516 32.4328 56.7043C32.68 56.4571 32.8202 56.1227 32.8233 55.7731C32.8263 55.4235 32.6919 55.0867 32.449 54.8353L30.5637 52.9498L32.449 51.0643C32.6919 50.8129 32.8263 50.4761 32.8233 50.1265C32.8202 49.7769 32.68 49.4424 32.4328 49.1952C32.1856 48.948 31.8512 48.8078 31.5016 48.8048C31.152 48.8017 30.8152 48.9361 30.5637 49.179L30.0116 49.731V48.9498C30.0116 48.5962 29.8711 48.257 29.621 48.007C29.371 47.7569 29.0318 47.6165 28.6782 47.6165C28.3246 47.6165 27.9855 47.7569 27.7354 48.007C27.4854 48.257 27.3449 48.5962 27.3449 48.9498V49.731L26.7928 49.179C26.5413 48.9361 26.2045 48.8017 25.8549 48.8048C25.5053 48.8078 25.1709 48.948 24.9237 49.1952C24.6765 49.4424 24.5362 49.7769 24.5332 50.1265C24.5302 50.4761 24.6645 50.8129 24.9074 51.0643L26.7928 52.9498L24.9074 54.8353C24.6575 55.0853 24.517 55.4244 24.517 55.7779C24.517 56.1315 24.6575 56.4706 24.9074 56.7206Z" fill="#DBDBDB"/>
        <path id="Vector_2" d="M59.3449 43.6165H46.0116V24.9498C46.0101 23.5358 45.4477 22.1801 44.4478 21.1802C43.4479 20.1803 42.0923 19.6179 40.6782 19.6165H38.0116V12.9498C38.0087 10.4753 37.0245 8.103 35.2747 6.35328C33.525 4.60356 31.1527 3.61931 28.6782 3.61646H20.6782C18.2037 3.61931 15.8314 4.60356 14.0817 6.35328C12.332 8.103 11.3477 10.4753 11.3449 12.9498V19.6165H8.67822C7.26419 19.6179 5.9085 20.1803 4.90863 21.1802C3.90875 22.1801 3.34637 23.5358 3.34489 24.9498V51.6165C3.34627 53.0305 3.90861 54.3863 4.90851 55.3862C5.9084 56.3861 7.26416 56.9484 8.67822 56.9498H19.3449V59.6165C19.3458 60.3234 19.6271 61.0011 20.127 61.501C20.6269 62.0009 21.3046 62.2822 22.0116 62.2831H59.3449C60.0518 62.2822 60.7296 62.0009 61.2295 61.501C61.7294 61.0011 62.0106 60.3234 62.0116 59.6165V46.2831C62.0106 45.5762 61.7294 44.8984 61.2295 44.3986C60.7296 43.8987 60.0518 43.6174 59.3449 43.6165ZM14.0116 12.9498C14.0136 11.1823 14.7167 9.48783 15.9665 8.23804C17.2163 6.98825 18.9108 6.2852 20.6782 6.28312H28.6782C30.4457 6.2852 32.1402 6.98825 33.39 8.23804C34.6398 9.48783 35.3428 11.1823 35.3449 12.9498V19.6165H14.0116V12.9498ZM8.67822 54.2831C7.97127 54.2822 7.29355 54.0009 6.79366 53.501C6.29377 53.0011 6.01251 52.3234 6.01156 51.6165V24.9498C6.01237 24.2428 6.29358 23.565 6.7935 23.0651C7.29342 22.5651 7.97123 22.2839 8.67822 22.2831H40.6782C41.3852 22.2839 42.063 22.5651 42.5629 23.0651C43.0629 23.565 43.3441 24.2428 43.3449 24.9498V43.6165H22.0116C21.3046 43.6174 20.6269 43.8987 20.127 44.3986C19.6271 44.8984 19.3458 45.5762 19.3449 46.2831V54.2831H8.67822ZM59.3449 59.6165H22.0116V46.2831L59.3449 46.287V59.6165Z" fill="#DBDBDB"/>
    </symbol>
    <symbol id="google">
        <g clip-path="url(#clip0_1_260)">
            <path d="M15.4112 8.65904C15.4112 7.96256 15.3589 7.45431 15.2459 6.92725H7.8948V10.0708H12.2097C12.1228 10.852 11.653 12.0285 10.609 12.8191L10.5944 12.9244L12.9187 14.8724L13.0797 14.8898C14.5586 13.4121 15.4112 11.2379 15.4112 8.65904Z" fill="#4285F4"/>
            <path d="M7.8948 16.9416C10.0087 16.9416 11.7834 16.1886 13.0797 14.8898L10.609 12.8191C9.94788 13.3179 9.06051 13.6662 7.8948 13.6662C5.82433 13.6662 4.06704 12.1885 3.44061 10.1461L3.3488 10.1546L0.931977 12.1781L0.900371 12.2732C2.18789 15.0403 4.83254 16.9416 7.8948 16.9416Z" fill="#34A853"/>
            <path d="M3.44085 10.1461C3.27557 9.61904 3.17991 9.05428 3.17991 8.47076C3.17991 7.88718 3.27557 7.32248 3.43216 6.79542L3.42778 6.68317L0.980675 4.62708L0.90061 4.66828C0.369963 5.81656 0.0654764 7.10603 0.0654764 8.47076C0.0654764 9.8355 0.369963 11.1249 0.90061 12.2732L3.44085 10.1461Z" fill="#FBBC05"/>
            <path d="M7.8948 3.27535C9.36499 3.27535 10.3567 3.96243 10.9222 4.5366L13.1319 2.20241C11.7748 0.837672 10.0087 0 7.8948 0C4.83254 0 2.18789 1.90121 0.900371 4.66832L3.43192 6.79546C4.06704 4.75306 5.82433 3.27535 7.8948 3.27535Z" fill="#EB4335"/>
        </g>
        <defs>
            <clipPath id="clip0_1_260">
                <rect width="15.3548" height="17" fill="white" transform="translate(0.0644455)"/>
            </clipPath>
        </defs>
    </symbol>
    <symbol id="facebook">
        <path d="M18.129 10.0611C18.129 4.50452 14.0852 0 9.09677 0C4.10839 0 0.0645142 4.50452 0.0645142 10.0611C0.0645142 15.0829 3.36748 19.2453 7.68548 20V12.9694H5.39214V10.0611H7.68548V7.84454C7.68548 5.32297 9.03394 3.93013 11.0971 3.93013C12.0853 3.93013 13.1189 4.12664 13.1189 4.12664V6.60262H11.98C10.858 6.60262 10.5081 7.37817 10.5081 8.17383V10.0611H13.0131L12.6126 12.9694H10.5081V20C14.8261 19.2453 18.129 15.0829 18.129 10.0611Z" fill="white"/>
    </symbol>
    <symbol id="github">
        <path d="M10.9032 2.2467C8.75849 2.2468 6.68377 3.09182 5.05029 4.63055C3.41681 6.16929 2.33116 8.30133 1.9876 10.6452C1.64404 12.989 2.06499 15.3918 3.17513 17.4235C4.28527 19.4551 6.01215 20.9832 8.04679 21.7342C8.4984 21.8217 8.66776 21.5217 8.66776 21.2592C8.66776 21.0217 8.65646 20.2342 8.65646 19.3967C6.38709 19.8592 5.8 18.7842 5.61935 18.2217C5.41891 17.6747 5.10115 17.1899 4.69355 16.8092C4.37742 16.6217 3.9258 16.1592 4.68225 16.1467C4.97109 16.1814 5.24812 16.2927 5.48986 16.4711C5.7316 16.6495 5.93093 16.8899 6.07097 17.1717C6.1945 17.4174 6.36061 17.6337 6.55978 17.8082C6.75895 17.9827 6.98727 18.112 7.23164 18.1886C7.47601 18.2652 7.73165 18.2877 7.98389 18.2548C8.23613 18.2219 8.48002 18.1342 8.70159 17.9967C8.74069 17.4883 8.94534 17.013 9.27742 16.6592C7.26774 16.4092 5.16774 15.5467 5.16774 11.7217C5.15505 10.7279 5.48629 9.76631 6.09355 9.03423C5.81741 8.17045 5.84972 7.22252 6.18387 6.38423C6.18387 6.38423 6.94029 6.12172 8.66774 7.40923C10.1457 6.95921 11.7059 6.95921 13.1839 7.40923C14.9113 6.10923 15.6677 6.38423 15.6677 6.38423C16.0019 7.22251 16.0342 8.17046 15.7581 9.03423C16.3671 9.76506 16.6987 10.7275 16.6839 11.7217C16.6839 15.5592 14.5726 16.4092 12.5629 16.6592C12.7785 16.9011 12.9445 17.1915 13.0497 17.5107C13.1549 17.83 13.1968 18.1705 13.1726 18.5092C13.1726 19.8468 13.1613 20.9217 13.1613 21.2592C13.1613 21.5217 13.3306 21.8342 13.7822 21.7342C15.8133 20.9771 17.5352 19.4455 18.6406 17.4128C19.746 15.38 20.163 12.9785 19.8171 10.6369C19.4711 8.29535 18.3848 6.16608 16.752 4.62922C15.1193 3.09235 13.0463 2.24794 10.9032 2.2467Z" fill="white"/>
    </symbol>
    <symbol id="arrow-right">
        <path d="M68.1379 20.7678C69.1143 19.7915 69.1143 18.2085 68.1379 17.2322L52.228 1.32233C51.2517 0.34602 49.6688 0.34602 48.6925 1.32233C47.7162 2.29864 47.7162 3.88155 48.6925 4.85786L62.8346 19L48.6925 33.1421C47.7162 34.1184 47.7162 35.7014 48.6925 36.6777C49.6688 37.654 51.2517 37.654 52.228 36.6777L68.1379 20.7678ZM0 21.5H66.3702V16.5H0L0 21.5Z" />
    </symbol>
    <symbol id="star">
        <path d="M18.9986 0L23.3804 13.1287H37.56L26.0884 21.2426L30.4702 34.3713L18.9986 26.2574L7.52699 34.3713L11.9087 21.2426L0.437147 13.1287H14.6168L18.9986 0Z" fill="#DBA758"/>
    </symbol>
    <symbol id="show">
        <circle cx="20" cy="20" r="20" fill="#D98639"/>
        <path d="M19.322 29.7029C19.7104 30.0956 20.3436 30.0991 20.7362 29.7107L27.1352 23.382C27.5279 22.9936 27.5314 22.3604 27.143 21.9678C26.7546 21.5751 26.1215 21.5716 25.7288 21.96L20.0408 27.5855L14.4153 21.8976C14.0269 21.5049 13.3938 21.5014 13.0011 21.8898C12.6084 22.2781 12.6049 22.9113 12.9933 23.304L19.322 29.7029ZM19.1323 10.9945L19.0331 28.9942L21.033 29.0052L21.1323 11.0055L19.1323 10.9945Z" fill="black"/>
    </symbol>
    <symbol id="footer-logo">
        <path fill-rule="evenodd" clip-rule="evenodd" d="M0 7.91845V30H4.26627V16.3723L9.53137 25.2673H12.0086L15.91 18.697L16.73 17.3177L14.5255 13.0852L13.7055 14.4696L10.784 19.4003L3.9538 7.91845H0ZM56.4956 12.0394H53.3166V25.8248H56.4956C60.4421 25.8248 62.5708 23.4851 62.5708 18.9321C62.5708 14.3792 60.4421 12.0404 56.4956 12.0404V12.0394ZM56.4956 7.86621C63.5651 7.86621 66.9138 12.5136 66.9138 18.9321C66.9138 25.3506 63.5651 29.998 56.4956 29.998H49.0585V7.86621H56.4956ZM76.5852 7.86621C78.8501 7.86621 81.1431 8.47401 82.7805 9.50776V13.7633C81.1702 12.4875 79.0145 11.8485 76.885 11.8787C74.8105 11.9088 73.7729 12.5477 73.7729 13.8548C73.7729 17.5337 84.2272 16.1654 84.2272 23.7352C84.2272 28.5082 80.7882 29.998 76.7757 29.998C74.1278 29.998 71.6713 29.2988 69.7062 28.0832V23.7352C71.7144 25.2102 74.0694 25.993 76.4759 25.9856C78.6867 25.9856 80.0513 25.4682 80.0513 23.9482C80.0513 19.9659 69.5969 21.4557 69.5969 13.916C69.5969 9.81116 72.8183 7.86621 76.5852 7.86621ZM101.44 7.86621V12.0394H91.704V16.7511H100.589V20.8921H91.704V25.8248H101.611V29.998H87.4459V7.86621H101.44ZM105.053 29.998V7.86621H109.055L118.31 22.3157C118.252 21.305 118.223 20.2925 118.225 19.2797V7.86621H122.483V29.998H118.48L109.226 15.5485C109.282 16.4658 109.311 17.5719 109.311 18.5845V29.998H105.053ZM36.4746 11.9249C36.4973 11.5088 36.4097 11.0946 36.2227 10.7334L34.7361 7.86822H33.2018L35.0703 11.4728C35.1425 11.6134 35.166 11.7742 35.1362 11.9259H36.4746V11.9249Z"/>
        <path fill-rule="evenodd" clip-rule="evenodd" d="M46.2245 19.9367L41.5284 28.9934C41.371 29.2989 41.1439 29.5529 40.87 29.7296C40.5962 29.9064 40.2853 29.9996 39.9687 30H30.5764C30.2597 29.9998 29.9486 29.9066 29.6746 29.7299C29.4006 29.5531 29.1733 29.2991 29.0158 28.9934L26.2243 23.6076L25.4558 22.1288L24.3197 19.9367C24.1621 19.6309 24.0791 19.2846 24.0791 18.9321C24.0791 18.5796 24.1621 18.2332 24.3197 17.9275L29.0158 8.87081C29.1735 8.56546 29.4008 8.31184 29.6748 8.13561C29.9489 7.95938 30.2599 7.86678 30.5764 7.86719H33.2026L35.0703 11.4718C35.1425 11.6124 35.166 11.7732 35.1362 11.9249H31.6394L28.0062 18.9341L29.6552 22.1137L30.3308 23.4197L31.6394 25.9423H38.9058L42.538 18.9341L38.9058 11.9249H36.4746C36.4973 11.5088 36.4097 11.0945 36.2226 10.7334L34.7361 7.86819H39.9687C40.2851 7.86796 40.5959 7.96064 40.8698 8.13687C41.1436 8.31309 41.3708 8.56661 41.5284 8.87181L46.2245 17.9275C46.546 18.5503 46.546 19.3138 46.2245 19.9377"/>
        <mask id="mask0_6_139" style="mask-type:alpha" maskUnits="userSpaceOnUse" x="12" y="0" width="25" height="24">
            <path d="M12.5984 0H36.4765V23.6076H12.5984V0Z" fill="#F17900"/>
        </mask>
        <g mask="url(#mask0_6_139)">
            <path fill-rule="evenodd" clip-rule="evenodd" d="M21.4773 22.1288V23.6076H26.2231L25.4555 22.1288H21.4764H21.4773ZM36.2214 10.7334L34.7349 7.86822L31.211 1.06895C31.042 0.743731 30.7991 0.473679 30.5066 0.285885C30.2142 0.0980918 29.8824 -0.000837629 29.5448 -0.000976562H19.5293C18.8412 -0.000976562 18.209 0.408909 17.864 1.06895L12.8536 10.7334C12.6859 11.0591 12.5977 11.428 12.5977 11.8033C12.5977 12.1787 12.6859 12.5475 12.8536 12.8732L13.6609 14.4334L15.8609 18.6729L17.2219 21.298V18.3404L16.6782 17.2886L14.4792 13.046L14.0059 12.1359C13.9538 12.0348 13.9264 11.9203 13.9264 11.8038C13.9264 11.6873 13.9538 11.5728 14.0059 11.4718L19.0137 1.81036C19.066 1.7095 19.1413 1.62575 19.232 1.56756C19.3227 1.50936 19.4255 1.47876 19.5302 1.47883H29.5457C29.757 1.47883 29.9557 1.60441 30.0613 1.81036L33.2014 7.86822L35.0691 11.4718C35.1413 11.6124 35.1657 11.7732 35.1359 11.9249C35.1251 11.9991 35.1025 12.0705 35.0691 12.1359L30.0613 21.7963C30.0193 21.8797 29.9609 21.9515 29.8906 22.0064C29.8202 22.0613 29.7397 22.098 29.6549 22.1138L30.3305 23.4198C30.7001 23.2361 31.0082 22.9275 31.211 22.5377L36.2214 12.8732C36.3711 12.5834 36.4577 12.2586 36.4743 11.9249C36.4967 11.5087 36.4088 11.0944 36.2214 10.7334Z" fill="#F17900"/>
        </g>
        <path fill-rule="evenodd" clip-rule="evenodd" d="M21.4786 7.86819V30H17.2223V16.3703L16.6795 17.2885L14.4805 13.047L17.5339 7.86719L21.4786 7.86819Z"/>
    </symbol>
    <symbol id="send">
        <path fill-rule="evenodd" clip-rule="evenodd" d="M15.3498 17.5L11.9544 15.2148L10.5852 16.3628L10.0291 13.9189L15.9588 8.72567L8.84895 12.8097L5.50012 10.3935L18.5001 6.5L15.3498 17.5Z"/>
    </symbol>
    <symbol id="arrows-left" fill="none">
        <path d="M22.0136 2.14131L1.72514 17.2353L22.1574 32.141M52.5541 2.00009L32.2656 17.0941L52.6978 31.9998" stroke="#BDBDBD" stroke-width="2.83077" stroke-linecap="round" stroke-linejoin="round"/>
    </symbol>
    <symbol id="arrows-right" fill="none">
        <path d="M31.9682 32L52.3287 17L31.9682 2M1.42737 32L21.7879 17L1.42737 2" stroke="#BDBDBD" stroke-width="2.83077" stroke-linecap="round" stroke-linejoin="round"/>
    </symbol>
    <symbol id="ticket" fill="none">
        <path d="M3.40918 8.86373V6.89403C3.40918 6.35011 3.85011 5.90918 4.39403 5.90918H20.1516C20.6955 5.90918 21.1365 6.35011 21.1365 6.89403V8.86373M3.40918 14.7728V16.7425C3.40918 17.2864 3.85011 17.7274 4.39403 17.7274H20.1516C20.6955 17.7274 21.1365 17.2864 21.1365 16.7425V14.7728" stroke="white" stroke-width="2.68636" stroke-linecap="round" stroke-linejoin="round"/>
        <path d="M21.1363 14.7726C19.5046 14.7726 18.1818 13.4498 18.1818 11.8181C18.1818 10.1863 19.5046 8.86353 21.1363 8.86353" stroke="white" stroke-width="2.68636" stroke-linecap="round" stroke-linejoin="round"/>
        <path d="M3.40918 8.86353C5.04093 8.86353 6.36373 10.1863 6.36373 11.8181C6.36373 13.4498 5.04093 14.7726 3.40918 14.7726" stroke="white" stroke-width="2.68636" stroke-linecap="round" stroke-linejoin="round"/>
        <path d="M14.2426 5.90918V17.7274" stroke="white" stroke-width="2.68636" stroke-linecap="round" stroke-linejoin="round"/>
    </symbol>
    <symbol id="cancel">
        <path d="M12.1081 12.8914L13.0815 11.8656C13.1291 11.814 13.1863 11.7726 13.2496 11.7439C13.3129 11.7153 13.3811 11.6999 13.4502 11.6986C13.5193 11.6974 13.5879 11.7103 13.6522 11.7367C13.7164 11.7631 13.7749 11.8024 13.8243 11.8523C13.8737 11.9022 13.913 11.9618 13.9399 12.0275C13.9668 12.0932 13.9807 12.1638 13.981 12.2351C13.9812 12.3065 13.9677 12.3772 13.9413 12.4431C13.9148 12.509 13.876 12.5688 13.8269 12.6191L12.8385 13.6612L13.8269 14.7037C13.877 14.7538 13.9169 14.8136 13.9442 14.8798C13.9715 14.9461 13.9857 15.0172 13.9859 15.0892C13.9861 15.1612 13.9724 15.2324 13.9454 15.2988C13.9185 15.3652 13.879 15.4253 13.8291 15.4756C13.7793 15.526 13.7202 15.5655 13.6553 15.5919C13.5905 15.6182 13.5211 15.6309 13.4514 15.6291C13.3817 15.6274 13.3131 15.6112 13.2495 15.5816C13.186 15.552 13.1288 15.5095 13.0815 15.4568L12.1081 14.431L11.1348 15.4568C11.0871 15.5084 11.0299 15.5498 10.9667 15.5785C10.9034 15.6071 10.8352 15.6225 10.7661 15.6238C10.6969 15.625 10.6283 15.6121 10.5641 15.5857C10.4998 15.5593 10.4413 15.52 10.3919 15.4701C10.3426 15.4202 10.3033 15.3606 10.2764 15.2949C10.2495 15.2292 10.2355 15.1586 10.2352 15.0873C10.235 15.0159 10.2485 14.9452 10.2749 14.8793C10.3014 14.8134 10.3403 14.7536 10.3893 14.7033L11.3777 13.6612L10.3893 12.6187C10.3392 12.5686 10.2993 12.5087 10.272 12.4425C10.2447 12.3763 10.2305 12.3051 10.2303 12.2332C10.2301 12.1612 10.2439 12.09 10.2708 12.0236C10.2977 11.9572 10.3373 11.8971 10.3871 11.8467C10.4369 11.7964 10.496 11.7569 10.5609 11.7305C10.6258 11.7042 10.6951 11.6915 10.7648 11.6933C10.8345 11.695 10.9031 11.7112 10.9667 11.7408C11.0302 11.7704 11.0874 11.8128 11.1348 11.8656L12.1081 12.8914ZM6.82066 16.0306C6.98671 16.0306 7.14595 16.0987 7.26337 16.2198C7.38078 16.341 7.44674 16.5054 7.44674 16.6768C7.44674 16.8482 7.38078 17.0125 7.26337 17.1337C7.14595 17.2549 6.98671 17.323 6.82066 17.323H2.71692C2.36064 17.323 2.00785 17.2505 1.67869 17.1098C1.34954 16.9691 1.05046 16.7628 0.798529 16.5028C0.546603 16.2428 0.346764 15.9341 0.210422 15.5944C0.0740804 15.2546 0.00390625 14.8905 0.00390625 14.5228V2.89125C0.00390625 2.14859 0.289741 1.43636 0.798529 0.91122C1.30732 0.386083 1.99738 0.0910645 2.71692 0.0910645H11.482C12.2016 0.0910645 12.8916 0.386083 13.4004 0.91122C13.9092 1.43636 14.195 2.14859 14.195 2.89125V7.81441C14.195 7.98577 14.129 8.1501 14.0116 8.27127C13.8942 8.39243 13.735 8.46049 13.569 8.46049C13.4029 8.46049 13.2437 8.39243 13.1263 8.27127C13.0089 8.1501 12.9429 7.98577 12.9429 7.81441V2.89125C12.9429 2.69324 12.9051 2.49718 12.8317 2.31424C12.7583 2.13131 12.6507 1.96509 12.515 1.82508C12.3794 1.68507 12.2183 1.57401 12.0411 1.49823C11.8638 1.42246 11.6739 1.38346 11.482 1.38346H2.71692C2.52508 1.38346 2.33511 1.42246 2.15787 1.49823C1.98064 1.57401 1.81959 1.68507 1.68394 1.82508C1.54829 1.96509 1.44068 2.13131 1.36727 2.31424C1.29385 2.49718 1.25607 2.69324 1.25607 2.89125V14.5228C1.25607 14.7208 1.29385 14.9169 1.36727 15.0998C1.44068 15.2827 1.54829 15.4489 1.68394 15.589C1.81959 15.729 1.98064 15.84 2.15787 15.9158C2.33511 15.9916 2.52508 16.0306 2.71692 16.0306H6.82066ZM3.55169 5.25978C3.38566 5.25975 3.22644 5.19165 3.10905 5.07047C2.99166 4.94929 2.92572 4.78494 2.92572 4.61358C2.92572 4.44222 2.99166 4.27787 3.10905 4.15669C3.22644 4.03551 3.38566 3.96741 3.55169 3.96738H10.2299C10.3959 3.96741 10.5551 4.03551 10.6725 4.15669C10.7899 4.27787 10.8558 4.44222 10.8558 4.61358C10.8558 4.78494 10.7899 4.94929 10.6725 5.07047C10.5551 5.19165 10.3959 5.25975 10.2299 5.25978H3.55169ZM3.55169 8.70616C3.38564 8.70616 3.2264 8.63808 3.10899 8.51689C2.99157 8.39571 2.92561 8.23134 2.92561 8.05996C2.92561 7.88858 2.99157 7.72422 3.10899 7.60303C3.2264 7.48185 3.38564 7.41377 3.55169 7.41377H10.2299C10.3959 7.41377 10.5552 7.48185 10.6726 7.60303C10.79 7.72422 10.856 7.88858 10.856 8.05996C10.856 8.23134 10.79 8.39571 10.6726 8.51689C10.5552 8.63808 10.3959 8.70616 10.2299 8.70616H3.55169ZM3.55169 12.1517C3.46946 12.1517 3.38804 12.135 3.31207 12.1025C3.2361 12.0701 3.16707 12.0225 3.10892 11.9625C3.05077 11.9024 3.00464 11.8312 2.97317 11.7528C2.9417 11.6744 2.92551 11.5904 2.92551 11.5055C2.92551 11.4206 2.9417 11.3366 2.97317 11.2582C3.00464 11.1798 3.05077 11.1085 3.10892 11.0485C3.16707 10.9885 3.2361 10.9409 3.31207 10.9084C3.38804 10.876 3.46946 10.8593 3.55169 10.8593H6.05601C6.22204 10.8593 6.38126 10.9274 6.49865 11.0486C6.61604 11.1698 6.68198 11.3341 6.68198 11.5055C6.68198 11.6768 6.61604 11.8412 6.49865 11.9624C6.38126 12.0836 6.22204 12.1517 6.05601 12.1517H3.55169ZM11.8994 18.2729C9.43183 18.2729 7.4313 16.2081 7.4313 13.6612C7.4313 11.1143 9.43183 9.0495 11.8994 9.0495C14.367 9.0495 16.3675 11.1143 16.3675 13.6612C16.3675 16.2081 14.367 18.2729 11.8994 18.2729ZM11.8994 17.1959C12.8077 17.1959 13.6788 16.8235 14.321 16.1606C14.9633 15.4977 15.3241 14.5987 15.3241 13.6612C15.3241 12.7237 14.9633 11.8247 14.321 11.1618C13.6788 10.4989 12.8077 10.1265 11.8994 10.1265C10.9911 10.1265 10.1201 10.4989 9.47782 11.1618C8.83558 11.8247 8.47476 12.7237 8.47476 13.6612C8.47476 14.5987 8.83558 15.4977 9.47782 16.1606C10.1201 16.8235 10.9911 17.1959 11.8994 17.1959Z" fill="black"/>
    </symbol>
    <symbol id="profile">
        <path d="M27.5 0C12.3372 0 0 12.3372 0 27.5C0 35.6251 3.54521 42.9367 9.16667 47.9749V47.9944L9.56542 48.3381C9.63531 48.3989 9.71208 48.4493 9.78313 48.5089C10.9294 49.4755 12.1514 50.3488 13.4372 51.1202C13.5346 51.1786 13.6343 51.2337 13.7317 51.2898C14.3699 51.661 15.0219 52.0105 15.691 52.3302L15.7117 52.3394C17.1553 53.0257 18.6564 53.5839 20.1976 54.0077L20.2835 54.0318C21.018 54.2323 21.7651 54.4007 22.5225 54.5394L22.7345 54.5772C23.4707 54.7072 24.2119 54.8074 24.9563 54.8774C25.0422 54.8854 25.1281 54.89 25.2129 54.8969C25.968 54.9599 26.7289 55 27.5 55C28.2711 55 29.032 54.9599 29.7871 54.8969C29.873 54.89 29.959 54.8854 30.0438 54.8774C30.7943 54.8087 31.5345 54.7055 32.2655 54.5772L32.4775 54.5394C33.2307 54.4021 33.9777 54.2328 34.7165 54.0318L34.8024 54.0077C36.3436 53.5839 37.8447 53.0257 39.2883 52.3394L39.309 52.3302C39.9757 52.0096 40.6293 51.6625 41.2683 51.2898C41.3669 51.2325 41.4654 51.1786 41.5628 51.1202C42.1442 50.7715 42.7125 50.4015 43.2667 50.011C43.4087 49.9114 43.5508 49.8117 43.6918 49.7085C44.2143 49.3258 44.723 48.9259 45.2169 48.5089C45.2879 48.4493 45.3647 48.3989 45.4346 48.3381L45.8333 47.9944V47.9749C51.4548 42.9355 55 35.6251 55 27.5C55 12.3372 42.6628 0 27.5 0ZM27.5 27.5C22.4457 27.5 18.3333 23.3876 18.3333 18.3333C18.3333 13.2791 22.4457 9.16667 27.5 9.16667C32.5543 9.16667 36.6667 13.2791 36.6667 18.3333C36.6667 23.3876 32.5543 27.5 27.5 27.5ZM30.9375 29.7917C37.887 29.7917 43.5417 35.4464 43.5417 42.3958V46.931C43.4935 46.9711 43.4431 47.0078 43.395 47.0479C42.9424 47.4157 42.4783 47.7652 42.004 48.0998C41.8985 48.1743 41.7954 48.251 41.69 48.3232C41.1778 48.6727 40.6519 49.0004 40.1168 49.3109L39.8223 49.4805C37.3756 50.859 34.7139 51.8151 31.9493 52.3084L31.7533 52.344C31.1019 52.4553 30.4464 52.5413 29.7882 52.6018C29.6977 52.6098 29.606 52.6155 29.5144 52.6224C28.8464 52.674 28.1749 52.7083 27.5 52.7083C26.8251 52.7083 26.1536 52.674 25.4856 52.6201L25.2118 52.5995C24.4875 52.5332 23.7665 52.4354 23.0507 52.3061C20.9904 51.9353 18.9843 51.3095 17.0786 50.443L16.8942 50.3594C16.2083 50.0398 15.5373 49.6892 14.8832 49.3086C14.3481 48.9993 13.8222 48.6704 13.31 48.3209C13.2034 48.2488 13.1003 48.172 12.996 48.0975C12.5203 47.7632 12.0563 47.4123 11.605 47.0456C11.5569 47.0067 11.5065 46.9689 11.4583 46.9288V42.3958C11.4583 35.4464 17.113 29.7917 24.0625 29.7917H30.9375ZM45.8333 44.7746V42.3958C45.8333 35.2103 40.7183 29.197 33.9396 27.8036C35.485 26.7541 36.7503 25.3424 37.625 23.6917C38.4998 22.0411 38.9575 20.2015 38.9583 18.3333C38.9583 12.0152 33.8181 6.875 27.5 6.875C21.1819 6.875 16.0417 12.0152 16.0417 18.3333C16.0425 20.2015 16.5002 22.0411 17.375 23.6917C18.2497 25.3424 19.515 26.7541 21.0604 27.8036C14.2817 29.197 9.16667 35.2103 9.16667 42.3958V44.7746C4.90875 40.2589 2.29167 34.1814 2.29167 27.5C2.29167 13.5999 13.5999 2.29167 27.5 2.29167C41.4001 2.29167 52.7083 13.5999 52.7083 27.5C52.7083 34.1814 50.0913 40.2589 45.8333 44.7746Z" />
    </symbol>
    <symbol id="avatar">
        <path d="M125 0C141.927 0 158.061 3.377 172.811 9.48002L173.035 9.58174C188.232 15.9085 201.925 25.1648 213.379 36.6385C224.894 48.1325 234.172 61.905 240.519 77.2235C246.643 91.9521 250 108.105 250 125.01C250 141.936 246.623 158.068 240.519 172.817L240.417 173.041C234.07 188.237 224.833 201.929 213.359 213.382C201.864 224.896 188.09 234.173 172.77 240.52C158.04 246.643 141.886 250 124.98 250C108.073 250 91.919 246.623 77.1688 240.52L76.945 240.418C61.7472 234.091 48.055 224.835 36.6007 213.382L36.6211 213.341C25.1058 201.827 15.8285 188.075 9.48079 172.797C3.37728 158.048 0 141.916 0 124.99C0 108.064 3.37728 91.9318 9.48079 77.1828L9.58252 76.9591C15.9098 61.7626 25.1668 48.0714 36.6211 36.6181H36.6414C48.1567 25.1038 61.91 15.8272 77.2095 9.48002C91.9393 3.377 108.073 0 125 0ZM34.5662 192.184L35.0545 191.899C47.0581 185.206 78.3081 182.989 91.2883 173.936C92.2445 172.512 93.2617 170.437 94.2586 168.179C95.7438 164.782 97.1069 161.059 97.9614 158.536C94.34 154.264 91.2272 149.443 88.2568 144.703L78.4302 129.059C74.8494 123.688 72.9777 118.805 72.8556 114.777C72.7946 112.886 73.1201 111.177 73.8322 109.651C74.5646 108.064 75.6836 106.742 77.2095 105.725C77.9216 105.236 78.715 104.83 79.5899 104.524C78.9388 96.0412 78.715 85.3609 79.1219 76.4098C79.3254 74.2941 79.7526 72.158 80.3223 70.0423C82.8451 61.0709 89.1317 53.849 96.9238 48.8852C101.217 46.1388 105.937 44.0841 110.84 42.7008C113.973 41.8057 108.175 31.8374 111.41 31.4916C127.014 29.8844 152.262 44.1452 163.167 55.924C168.62 61.8236 172.058 69.6558 172.791 80.0106L172.18 105.521C174.906 106.355 176.656 108.084 177.348 110.872C178.141 113.984 177.287 118.338 174.642 124.298C174.601 124.4 174.54 124.522 174.479 124.624L163.269 143.075C159.159 149.849 154.968 156.664 149.536 162.015C150.045 162.747 150.553 163.459 151.042 164.171C153.259 167.426 155.497 170.681 158.366 173.59C158.468 173.692 158.549 173.794 158.61 173.895C171.509 183.009 202.901 185.227 214.945 191.94L215.434 192.225C229.411 173.468 237.671 150.216 237.671 125.031C237.671 93.9255 225.057 65.7499 204.671 45.3861C184.326 24.9817 156.148 12.3688 125.041 12.3688C93.9331 12.3688 65.7552 24.9817 45.3898 45.3658C24.9634 65.7092 12.3494 93.8848 12.3494 124.99C12.3494 150.175 20.6095 173.427 34.5662 192.184Z" fill="#767678"/>
    </symbol>
    <symbol id="play-preview">
        <rect x="0.000976562" width="70" height="70" rx="35" fill="#D98639"/>
        <path d="M51.3343 33.8333L25.0843 48.9887L25.0844 18.6778L51.3343 33.8333Z" fill="white"/>
    </symbol>
    <symbol id="play-control" fill="#fff">
        <g id="SVGRepo_bgCarrier" stroke-width="0"/>
        <g id="SVGRepo_tracerCarrier" stroke-linecap="round" stroke-linejoin="round"/>
        <g id="SVGRepo_iconCarrier">
            <path d="M30,0C13.458,0,0,13.458,0,30s13.458,30,30,30s30-13.458,30-30S46.542,0,30,0z M45.563,30.826l-22,15 C23.394,45.941,23.197,46,23,46c-0.16,0-0.321-0.038-0.467-0.116C22.205,45.711,22,45.371,22,45V15c0-0.371,0.205-0.711,0.533-0.884 c0.328-0.174,0.724-0.15,1.031,0.058l22,15C45.836,29.36,46,29.669,46,30S45.836,30.64,45.563,30.826z"/>
        </g>
    </symbol>
    <symbol id="pause-control" fill="#fff">
        <g id="SVGRepo_bgCarrier" stroke-width="0"/>
        <g id="SVGRepo_tracerCarrier" stroke-linecap="round" stroke-linejoin="round"/>
        <g id="SVGRepo_iconCarrier">
            <path d="M256,0C114.617,0,0,114.615,0,256s114.617,256,256,256s256-114.615,256-256S397.383,0,256,0z M224,320 c0,8.836-7.164,16-16,16h-32c-8.836,0-16-7.164-16-16V192c0-8.836,7.164-16,16-16h32c8.836,0,16,7.164,16,16V320z M352,320 c0,8.836-7.164,16-16,16h-32c-8.836,0-16-7.164-16-16V192c0-8.836,7.164-16,16-16h32c8.836,0,16,7.164,16,16V320z"/>
        </g>
    </symbol>
    <symbol id="volume-control">
        <g id="SVGRepo_bgCarrier" stroke-width="0"/>
        <g id="SVGRepo_tracerCarrier" stroke-linecap="round" stroke-linejoin="round"/>
        <g id="SVGRepo_iconCarrier">
            <path d="M16.0004 9.00009C16.6281 9.83575 17 10.8745 17 12.0001C17 13.1257 16.6281 14.1644 16.0004 15.0001M18 5.29177C19.8412 6.93973 21 9.33459 21 12.0001C21 14.6656 19.8412 17.0604 18 18.7084M4.6 9.00009H5.5012C6.05213 9.00009 6.32759 9.00009 6.58285 8.93141C6.80903 8.87056 7.02275 8.77046 7.21429 8.63566C7.43047 8.48353 7.60681 8.27191 7.95951 7.84868L10.5854 4.69758C11.0211 4.17476 11.2389 3.91335 11.4292 3.88614C11.594 3.86258 11.7597 3.92258 11.8712 4.04617C12 4.18889 12 4.52917 12 5.20973V18.7904C12 19.471 12 19.8113 11.8712 19.954C11.7597 20.0776 11.594 20.1376 11.4292 20.114C11.239 20.0868 11.0211 19.8254 10.5854 19.3026L7.95951 16.1515C7.60681 15.7283 7.43047 15.5166 7.21429 15.3645C7.02275 15.2297 6.80903 15.1296 6.58285 15.0688C6.32759 15.0001 6.05213 15.0001 5.5012 15.0001H4.6C4.03995 15.0001 3.75992 15.0001 3.54601 14.8911C3.35785 14.7952 3.20487 14.6422 3.10899 14.4541C3 14.2402 3 13.9601 3 13.4001V10.6001C3 10.04 3 9.76001 3.10899 9.54609C3.20487 9.35793 3.35785 9.20495 3.54601 9.10908C3.75992 9.00009 4.03995 9.00009 4.6 9.00009Z" stroke="#ffffff" stroke-width="2" stroke-linecap="round" stroke-linejoin="round"/>
        </g>
    </symbol>
    <symbol id="muted-control" fill="#fff">
        <g id="SVGRepo_bgCarrier" stroke-width="0"/>
        <g id="SVGRepo_tracerCarrier" stroke-linecap="round" stroke-linejoin="round"/>
        <g id="SVGRepo_iconCarrier">
            <line x1="416" y1="432" x2="64" y2="80" style="fill:none;stroke:#ffffff;stroke-linecap:round;stroke-miterlimit:10;stroke-width:32px"/>
            <path d="M224,136.92v33.8a4,4,0,0,0,1.17,2.82l24,24a4,4,0,0,0,6.83-2.82V120.57a24.53,24.53,0,0,0-12.67-21.72,23.91,23.91,0,0,0-25.55,1.83,8.27,8.27,0,0,0-.66.51l-31.94,26.15a4,4,0,0,0-.29,5.92l17.05,17.06a4,4,0,0,0,5.37.26Z"/>
            <path d="M224,375.08l-78.07-63.92A32,32,0,0,0,125.65,304H64V208h50.72a4,4,0,0,0,2.82-6.83l-24-24A4,4,0,0,0,90.72,176H56a24,24,0,0,0-24,24V312a24,24,0,0,0,24,24h69.76l91.36,74.8a8.27,8.27,0,0,0,.66.51A23.93,23.93,0,0,0,243.63,413,24.49,24.49,0,0,0,256,391.45V341.28a4,4,0,0,0-1.17-2.82l-24-24a4,4,0,0,0-6.83,2.82ZM125.82,336Z"/>
            <path d="M352,256c0-24.56-5.81-47.88-17.75-71.27a16,16,0,0,0-28.5,14.54C315.34,218.06,320,236.62,320,256q0,4-.31,8.13a8,8,0,0,0,2.32,6.25l19.66,19.67a4,4,0,0,0,6.75-2A146.89,146.89,0,0,0,352,256Z"/>
            <path d="M416,256c0-51.19-13.08-83.89-34.18-120.06a16,16,0,0,0-27.64,16.12C373.07,184.44,384,211.83,384,256c0,23.83-3.29,42.88-9.37,60.65a8,8,0,0,0,1.9,8.26l16.77,16.76a4,4,0,0,0,6.52-1.27C410.09,315.88,416,289.91,416,256Z"/>
            <path d="M480,256c0-74.26-20.19-121.11-50.51-168.61a16,16,0,1,0-27,17.22C429.82,147.38,448,189.5,448,256c0,47.45-8.9,82.12-23.59,113a4,4,0,0,0,.77,4.55L443,391.39a4,4,0,0,0,6.4-1C470.88,348.22,480,307,480,256Z"/>
        </g>
    </symbol>
    <symbol id="screen-control">
        <g id="SVGRepo_bgCarrier" stroke-width="0"/>
        <g id="SVGRepo_tracerCarrier" stroke-linecap="round" stroke-linejoin="round"/>
        <g id="SVGRepo_iconCarrier">
            <path d="M23 4C23 2.34315 21.6569 1 20 1H16C15.4477 1 15 1.44772 15 2C15 2.55228 15.4477 3 16 3H20C20.5523 3 21 3.44772 21 4V8C21 8.55228 21.4477 9 22 9C22.5523 9 23 8.55228 23 8V4Z" fill="#ffffff"/>
            <path d="M23 16C23 15.4477 22.5523 15 22 15C21.4477 15 21 15.4477 21 16V20C21 20.5523 20.5523 21 20 21H16C15.4477 21 15 21.4477 15 22C15 22.5523 15.4477 23 16 23H20C21.6569 23 23 21.6569 23 20V16Z" fill="#ffffff"/>
            <path d="M4 21H8C8.55228 21 9 21.4477 9 22C9 22.5523 8.55228 23 8 23H4C2.34315 23 1 21.6569 1 20V16C1 15.4477 1.44772 15 2 15C2.55228 15 3 15.4477 3 16V20C3 20.5523 3.44772 21 4 21Z" fill="#ffffff"/>
            <path d="M1 8C1 8.55228 1.44772 9 2 9C2.55228 9 3 8.55228 3 8L3 4C3 3.44772 3.44772 3 4 3H8C8.55228 3 9 2.55228 9 2C9 1.44772 8.55228 1 8 1H4C2.34315 1 1 2.34315 1 4V8Z" fill="#ffffff"/>
        </g>
    </symbol>
    <symbol id="pause">
        <g id="SVGRepo_bgCarrier" stroke-width="0"/>
        <g id="SVGRepo_tracerCarrier" stroke-linecap="round" stroke-linejoin="round"/>
        <g id="SVGRepo_iconCarrier">
            <g id="Page-1" stroke="none" stroke-width="1" fill="none" fill-rule="evenodd">
                <g id="Dribbble-Light-Preview" transform="translate(-67.000000, -3765.000000)" fill="#ffffff">
                    <g id="icons" transform="translate(56.000000, 160.000000)">
                        <path d="M11,3613 L13,3613 L13,3605 L11,3605 L11,3613 Z M15,3613 L17,3613 L17,3605 L15,3605 L15,3613 Z" id="pause-[#ffffff]"/>
                    </g>
                </g>
            </g>
        </g>
    </symbol>
    <symbol id="play">
        <g id="SVGRepo_bgCarrier" stroke-width="0"/>
        <g id="SVGRepo_tracerCarrier" stroke-linecap="round" stroke-linejoin="round"/>
        <g id="SVGRepo_iconCarrier">
            <g id="Page-1" stroke="none" stroke-width="1" fill="none" fill-rule="evenodd">
                <g id="Icon-Set-Filled" transform="translate(-419.000000, -571.000000)" fill="#ffffff">
                    <path d="M440.415,583.554 L421.418,571.311 C420.291,570.704 419,570.767 419,572.946 L419,597.054 C419,599.046 420.385,599.36 421.418,598.689 L440.415,586.446 C441.197,585.647 441.197,584.353 440.415,583.554" id="play"/>
                </g>
            </g>
        </g>
    </symbol>
    <symbol id="skip-backward-10" stroke-width="3" stroke="#ffffff" fill="none">
        <g id="SVGRepo_bgCarrier" stroke-width="0"/>
        <g id="SVGRepo_tracerCarrier" stroke-linecap="round" stroke-linejoin="round"/>
        <g id="SVGRepo_iconCarrier">
            <polyline points="9.57 15.41 12.17 24.05 20.81 21.44" stroke-linecap="round"/>
            <path d="M26.93,41.41V23a.09.09,0,0,0-.16-.07s-2.58,3.69-4.17,4.78" stroke-linecap="round"/>
            <rect x="32.19" y="22.52" width="11.41" height="18.89" rx="5.7"/>
            <path d="M12.14,23.94a21.91,21.91,0,1,1-.91,13.25" stroke-linecap="round"/>
        </g>
    </symbol>
    <symbol id="skip-forward-10" stroke-width="3" stroke="#ffffff" fill="none">
        <g id="SVGRepo_bgCarrier" stroke-width="0"/>
        <g id="SVGRepo_tracerCarrier" stroke-linecap="round" stroke-linejoin="round"/>
        <g id="SVGRepo_iconCarrier">
            <path d="M23.93,41.41V23a.09.09,0,0,0-.16-.07s-2.58,3.69-4.17,4.78" stroke-linecap="round"/>
            <rect x="29.19" y="22.52" width="11.41" height="18.89" rx="5.7"/>
            <polyline points="54.43 15.41 51.83 24.05 43.19 21.44" stroke-linecap="round"/>
            <path d="M51.86,23.94a21.91,21.91,0,1,0,.91,13.25" stroke-linecap="round"/>
        </g>
    </symbol>
    <symbol id="right-arrow-nested" stroke="#ffffff" fill="none">
        <g id="SVGRepo_bgCarrier" stroke-width="0"/>
        <g id="SVGRepo_tracerCarrier" stroke-linecap="round" stroke-linejoin="round"/>
        <g id="SVGRepo_iconCarrier">
            <path d="M10 7L15 12L10 17" stroke="#ffffff" stroke-width="1.5" stroke-linecap="round" stroke-linejoin="round"/>
        </g>
    </symbol>
    <symbol id="left-arrow-nested" fill="none" stroke="#ffffff">
        <g id="SVGRepo_bgCarrier" stroke-width="0"/>
        <g id="SVGRepo_tracerCarrier" stroke-linecap="round" stroke-linejoin="round"/>
        <g id="SVGRepo_iconCarrier">
            <path fill-rule="evenodd" clip-rule="evenodd" d="M15.7071 4.29289C16.0976 4.68342 16.0976 5.31658 15.7071 5.70711L9.41421 12L15.7071 18.2929C16.0976 18.6834 16.0976 19.3166 15.7071 19.7071C15.3166 20.0976 14.6834 20.0976 14.2929 19.7071L7.29289 12.7071C7.10536 12.5196 7 12.2652 7 12C7 11.7348 7.10536 11.4804 7.29289 11.2929L14.2929 4.29289C14.6834 3.90237 15.3166 3.90237 15.7071 4.29289Z" fill="#ffffff"/>
        </g>
    </symbol>
    <symbol id="tick" fill="none" stroke="#ffffff">
        <g id="SVGRepo_bgCarrier" stroke-width="0"/>
        <g id="SVGRepo_tracerCarrier" stroke-linecap="round" stroke-linejoin="round"/>
        <g id="SVGRepo_iconCarrier">
            <path d="M4.89163 13.2687L9.16582 17.5427L18.7085 8" stroke="#ffffff" stroke-width="2.5" stroke-linecap="round" stroke-linejoin="round"/>
        </g>
    </symbol>
    <symbol id="arrow-up">
        <path d="M21 13L11 1L0.999999 13M21 31L11 19L1 31" stroke-width="2"
            stroke-linecap="round" stroke-linejoin="round" />
    </symbol>
    <symbol id="arrow-down">
        <path d="M0.999999 19L11 31L21 19M1 0.999999L11 13L21 1" stroke-width="2"
            stroke-linecap="round" stroke-linejoin="round" />
    </symbol>
    <symbol id="authorized">
        <svg fill="#29d312" viewBox="0 0 56 56" xmlns="http://www.w3.org/2000/svg" stroke="#29d312">
            <g id="SVGRepo_bgCarrier" stroke-width="0"/>
            <g id="SVGRepo_tracerCarrier" stroke-linecap="round" stroke-linejoin="round"/>
            <g id="SVGRepo_iconCarrier">
                <path d="M 27.9999 51.9063 C 41.0546 51.9063 51.9063 41.0781 51.9063 28 C 51.9063 14.9453 41.0312 4.0937 27.9765 4.0937 C 14.8983 4.0937 4.0937 14.9453 4.0937 28 C 4.0937 41.0781 14.9218 51.9063 27.9999 51.9063 Z M 24.7655 40.0234 C 23.9687 40.0234 23.3593 39.6719 22.6796 38.8750 L 15.9296 30.5312 C 15.5780 30.0859 15.3671 29.5234 15.3671 29.0078 C 15.3671 27.9063 16.2343 27.0625 17.2655 27.0625 C 17.9452 27.0625 18.5077 27.3203 19.0702 28.0469 L 24.6718 35.2890 L 35.5702 17.8281 C 36.0155 17.1016 36.6249 16.75 37.2343 16.75 C 38.2655 16.75 39.2733 17.4297 39.2733 18.5547 C 39.2733 19.0703 38.9687 19.6328 38.6640 20.1016 L 26.7577 38.8750 C 26.2421 39.6484 25.5858 40.0234 24.7655 40.0234 Z"/>
            </g>
        </svg>
    </symbol>
</svg>